<svg width="22" height="22" viewBox="0 0 22 22" fill="none" xmlns="http://www.w3.org/2000/svg">
<path fill-rule="evenodd" clip-rule="evenodd" d="M10.8052 0C4.83708 0 0 4.83708 0 10.8052C0 15.5783 3.09508 19.6289 7.38942 21.0589C7.93 21.1564 8.125 20.8238 8.125 20.5378C8.125 20.2811 8.11633 19.6008 8.11308 18.7005C5.10683 19.3527 4.472 17.251 4.472 17.251C3.98233 16.003 3.27275 15.6704 3.27275 15.6704C2.29233 14.9998 3.3475 15.015 3.3475 15.015C4.433 15.0908 5.00175 16.1287 5.00175 16.1287C5.96592 17.7797 7.53242 17.303 8.14558 17.0268C8.24417 16.328 8.52583 15.8513 8.8335 15.5816C6.435 15.3097 3.913 14.3823 3.913 10.2408C3.913 9.06317 4.33442 8.09684 5.02233 7.34283C4.91292 7.06875 4.53917 5.96917 5.12958 4.48283C5.12958 4.48283 6.03633 4.19142 8.10008 5.58892C8.98148 5.34914 9.89066 5.22675 10.8041 5.22492C11.7175 5.2264 12.6268 5.3488 13.5081 5.58892C15.5729 4.19033 16.4786 4.48283 16.4786 4.48283C17.069 5.96917 16.6985 7.06875 16.5858 7.34283C17.2792 8.09684 17.6952 9.06209 17.6952 10.2408C17.6952 14.3932 15.171 15.3053 12.7638 15.5729C13.1484 15.9066 13.4951 16.5653 13.4951 17.5728C13.4951 19.0179 13.4821 20.1836 13.4821 20.5378C13.4821 20.8271 13.6749 21.1629 14.2263 21.0568C18.5185 19.6246 21.6103 15.5773 21.6103 10.8052C21.6103 4.83708 16.7733 0 10.8052 0Z" fill="#D3E97A"/>
</svg>
